# File produced by Open Asset Import Library (http://www.assimp.sf.net)
# (assimp v5.0.1588609223)

mtllib result.mtl

# 8 vertex positions
v  0.2337727 0.56589782 0.45905125
v  -0.45734224 -0.10489871 0.69772619
v  -0.45734224 0.29659829 0.92819488
v  0.2337727 0.16440082 0.22858256
v  -0.17200437 0.11511183 1.2443604
v  0.51911056 -0.017085642 0.54474807
v  0.51911056 0.38441133 0.77521676
v  -0.17200437 -0.28638518 1.0138917

# 0 UV coordinates

# 6 vertex normals
vn -0.00061635725 0.00039202816 -0.00068294787
vn 0.00061635725 -0.00039202816 0.00068294787
vn 0.00078746676 0.00030684395 -0.00053454936
vn -0.00078746676 -0.00030684395 0.00053454936
vn 0 0.00086727209 0.00049783458
vn 0 -0.00086727209 -0.00049783458

# Mesh 'mesh_id30' with 12 faces
g mesh_id30
usemtl 58
f  1//1 2//1 3//1
f  1//1 4//1 2//1
f  5//2 6//2 7//2
f  5//2 8//2 6//2
f  7//3 4//3 1//3
f  7//3 6//3 4//3
f  3//4 8//4 5//4
f  3//4 2//4 8//4
f  3//5 7//5 1//5
f  3//5 5//5 7//5
f  8//6 4//6 6//6
f  8//6 2//6 4//6

